<svg xmlns="http://www.w3.org/2000/svg" viewBox="0 0 24 24">
    <path
            fill="#EA4335"
            d="M12 10.2v3.9h5.42c-.24 1.26-.96 2.33-2.04 3.05l3.3 2.56c1.92-1.77 3.02-4.38 3.02-7.49 0-.72-.07-1.41-.19-2.08H12z"
    />
    <path
            fill="#34A853"
            d="M12 22c2.73 0 5.01-.9 6.68-2.44l-3.3-2.56c-.92.62-2.1.99-3.38.99-2.6 0-4.8-1.75-5.58-4.11H3.01v2.58A9.997 9.997 0 0 0 12 22z"
    />
    <path
            fill="#4A90E2"
            d="M6.42 13.88A5.99 5.99 0 0 1 6.1 12c0-.65.11-1.27.32-1.88V7.54H3.01A9.997 9.997 0 0 0 2 12c0 1.61.38 3.13 1.01 4.46l3.41-2.58z"
    />
    <path
            fill="#FBBC05"
            d="M12 6.01c1.49 0 2.83.51 3.88 1.51l2.91-2.91C17 2.98 14.72 2 12 2a9.997 9.997 0 0 0-8.99 5.54l3.41 2.58c.78-2.36 2.98-4.11 5.58-4.11z"
    />
</svg>
